<?xml version="1.0" encoding="UTF-8" standalone="no"?> <!-- Created with Vectornator for iOS (http://vectornator.io/) --><!DOCTYPE svg PUBLIC "-//W3C//DTD SVG 1.1//EN" "http://www.w3.org/Graphics/SVG/1.1/DTD/svg11.dtd">
<svg height="100%" style="fill-rule:nonzero;clip-rule:evenodd;stroke-linecap:round;stroke-linejoin:round;" xmlns:xlink="http://www.w3.org/1999/xlink" xmlns="http://www.w3.org/2000/svg" xml:space="preserve" width="100%" xmlns:vectornator="http://vectornator.io" version="1.1" viewBox="0 0 3370.82 2384.24">
<metadata>
<vectornator:setting key="doHistoryDisabled" value="0"/>
<vectornator:setting key="SnapToEdges" value="0"/>
<vectornator:setting key="IsolateActiveLayer" value="0"/>
<vectornator:setting key="SnapToGuides" value="1"/>
<vectornator:setting key="Units" value="Points"/>
<vectornator:setting key="DynamicGuides" value="0"/>
<vectornator:setting key="OutlineMode" value="0"/>
<vectornator:setting key="CMYKEnabledKey" value="0"/>
<vectornator:setting key="RulersVisible" value="1"/>
<vectornator:setting key="GuidesVisible" value="1"/>
<vectornator:setting key="DimensionsVisible" value="1"/>
<vectornator:setting key="DisplayWhiteBackground" value="0"/>
<vectornator:setting key="SnapToPoints" value="0"/>
<vectornator:setting key="PencilOnly" value="0"/>
<vectornator:setting key="SnapToGrid" value="0"/>
<vectornator:setting key="TimeLapseWatermarkDisabled" value="0"/>
</metadata>
<defs>
<linearGradient y1="1133.78" id="LinearGradient" x1="499.631" y2="1133.78" x2="2679.7" gradientUnits="userSpaceOnUse" gradientTransform="matrix(-0.00116746 0.999999 -0.999999 -0.00116746 2863.79 -449.117)">
<stop stop-color="#f5e8d4" offset="0.769257"/>
<stop stop-color="#ffffff" offset="0.968531"/>
</linearGradient>
</defs>
<g id="Layer 1" vectornator:layerName="Layer 1">
<path stroke="#f9f7f4" vectornator:shadowColor="#6c665c" vectornator:shadowOffset="43.71" stroke-width="75.0414" fill="url(#LinearGradient)" fill-rule="evenodd" stroke-linecap="round" vectornator:shadowAngle="1.09614" opacity="1" stroke-linejoin="round" vectornator:shadowRadius="45.8161" d="M1346.92+48.7439L2111.94+49.637C2502.74+50.0932+2819.18+367.271+2818.72+758.074L2817.83+1522.92C2817.37+1913.72+2500.2+2230.16+2109.39+2229.71L1344.38+2228.81C953.576+2228.36+637.137+1911.18+637.594+1520.38L638.487+755.528C638.943+364.726+956.121+48.2876+1346.92+48.7439Z" stroke-opacity="0.755859" vectornator:shadowOpacity="1"/>
<path d="M1740.46+2107.5C1740.46+2021.77+1469.23+1876.6+1386.67+1846.34C1102.47+1742.23+988.379+1507.43+1032.62+1207.4L1121.1+1207.4C1076.86+1507.43+1334.87+1721.74+1651.98+1721.74L1828.94+1721.74C2146.06+1721.74+2404.07+1507.43+2359.83+1207.4L2448.31+1207.4C2492.55+1507.43+2378.5+1742.18+2094.39+1846.34C2011.79+1876.6+1740.46+2027.86+1740.46+2107.5Z" fill-rule="evenodd" fill="#2a2824" opacity="1"/>
<path d="M2085.46+1670.43C2196.95+1634.43+1974.77+1800.22+1747.99+1801.42C1521.22+1802.62+1300.59+1642.36+1418.94+1675.28C1648.59+1739.14+1647.97+1414.81+1656.86+1200.67C1666.81+961.67+1701.1+557.74+1701.1+557.74L1789.58+557.74C1789.58+557.74+1825.28+1039.25+1833.82+1200.67C1845.15+1414.72+1864.26+1741.8+2085.46+1670.43Z" fill-rule="evenodd" fill="#2a2824" opacity="1"/>
<path d="M1737.01+559.495C1713.85+559.495+1695.07+575.744+1695.07+595.788C1695.07+615.832+1713.85+632.081+1737.01+632.081C1760.17+632.081+1778.95+615.832+1778.95+595.788C1778.95+575.744+1760.17+559.495+1737.01+559.495ZM1485.38+886.129L1988.64+886.129L1988.64+958.714L1485.38+958.714L1485.38+886.129Z" fill-rule="evenodd" fill="#2a2824" opacity="1"/>
<path d="M2054.97+819.831C2006.16+819.831+1966.59+863.473+1966.59+917.309C1966.59+971.145+2006.16+1014.79+2054.97+1014.79C2103.79+1014.79+2143.36+971.145+2143.36+917.309C2143.36+863.473+2103.79+819.831+2054.97+819.831ZM1436.31+819.831C1387.5+819.831+1347.93+863.473+1347.93+917.309C1347.93+971.145+1387.5+1014.79+1436.31+1014.79C1485.12+1014.79+1524.69+971.145+1524.69+917.309C1524.69+863.473+1485.12+819.831+1436.31+819.831ZM950.216+1307.22C950.216+1307.22+994.406+1161+1126.98+1014.79C1171.17+1063.53+1215.36+1355.96+1215.36+1355.96C1215.36+1355.96+1126.98+1258.48+950.216+1307.22ZM2541.07+1307.22C2541.07+1307.22+2496.88+1161+2364.31+1014.79C2320.12+1063.53+2275.93+1355.96+2275.93+1355.96C2275.93+1355.96+2364.31+1258.48+2541.07+1307.22ZM1688.33+664.304C1690.89+626.726+1693.23+593.096+1695.22+565.071C1647.05+543.139+1613.07+490.939+1613.07+429.918C1613.07+349.157+1672.42+283.7+1745.64+283.7C1818.82+283.7+1878.21+349.157+1878.21+429.918C1878.21+491.231+1843.92+543.529+1795.44+565.266C1797.26+593.535+1799.42+627.36+1801.76+664.694C1896.42+637.156+1966.59+542.992+1966.59+429.918C1966.59+295.3+1867.7+186.222+1745.64+186.222C1623.63+186.222+1524.69+295.3+1524.69+429.918C1524.69+542.505+1594.29+636.279+1688.33+664.304Z" fill-rule="evenodd" fill="#2a2824" opacity="1"/>
<path d="M1739.76+2105.88C1739.76+2020.16+1468.53+1874.98+1385.97+1844.72C1101.77+1740.61+987.678+1505.82+1031.92+1205.78L1120.4+1205.78C1076.16+1505.82+1334.17+1720.12+1651.28+1720.12L1828.24+1720.12C2145.36+1720.12+2403.37+1505.82+2359.13+1205.78L2447.61+1205.78C2491.85+1505.82+2377.8+1740.57+2093.69+1844.72C2011.09+1874.98+1739.76+2026.24+1739.76+2105.88Z" fill-rule="evenodd" fill="#2a2824" opacity="1"/>
<path d="M2084.76+1668.82C2196.24+1632.81+1974.07+1798.6+1747.29+1799.8C1520.52+1801+1299.89+1640.74+1418.24+1673.66C1647.89+1737.53+1647.27+1413.19+1656.16+1199.05C1666.11+960.055+1700.4+556.125+1700.4+556.125L1788.88+556.125C1788.88+556.125+1824.58+1037.63+1833.12+1199.05C1844.45+1413.1+1863.56+1740.18+2084.76+1668.82Z" fill-rule="evenodd" fill="#2a2824" opacity="1"/>
<path d="M1736.31+557.88C1713.14+557.88+1694.37+574.129+1694.37+594.173C1694.37+614.217+1713.14+630.465+1736.31+630.465C1759.47+630.465+1778.24+614.217+1778.24+594.173C1778.24+574.129+1759.47+557.88+1736.31+557.88ZM1484.68+884.513L1987.94+884.513L1987.94+957.099L1484.68+957.099L1484.68+884.513Z" fill-rule="evenodd" fill="#2a2824" opacity="1"/>
<path d="M2054.27+818.215C2005.46+818.215+1965.89+861.858+1965.89+915.694C1965.89+969.529+2005.46+1013.17+2054.27+1013.17C2103.09+1013.17+2142.65+969.529+2142.65+915.694C2142.65+861.858+2103.09+818.215+2054.27+818.215ZM1435.61+818.215C1386.8+818.215+1347.23+861.858+1347.23+915.694C1347.23+969.529+1386.8+1013.17+1435.61+1013.17C1484.42+1013.17+1523.99+969.529+1523.99+915.694C1523.99+861.858+1484.42+818.215+1435.61+818.215ZM949.515+1305.61C949.515+1305.61+993.706+1159.39+1126.28+1013.17C1170.47+1061.91+1214.66+1354.35+1214.66+1354.35C1214.66+1354.35+1126.28+1256.87+949.515+1305.61ZM2540.37+1305.61C2540.37+1305.61+2496.18+1159.39+2363.61+1013.17C2319.42+1061.91+2275.23+1354.35+2275.23+1354.35C2275.23+1354.35+2363.61+1256.87+2540.37+1305.61ZM1687.63+662.689C1690.19+625.111+1692.53+591.481+1694.52+563.456C1646.35+541.523+1612.37+489.324+1612.37+428.302C1612.37+347.542+1671.72+282.085+1744.94+282.085C1818.12+282.085+1877.51+347.542+1877.51+428.302C1877.51+489.616+1843.22+541.913+1794.74+563.651C1796.56+591.92+1798.72+625.745+1801.06+663.079C1895.72+635.541+1965.89+541.377+1965.89+428.302C1965.89+293.685+1867+184.607+1744.94+184.607C1622.93+184.607+1523.99+293.685+1523.99+428.302C1523.99+540.89+1593.59+634.664+1687.63+662.689Z" fill-rule="evenodd" fill="#2a2824" opacity="1"/>
</g>
</svg>
