<?xml version="1.0" encoding="UTF-8" standalone="no"?> <!-- Created with Vectornator for iOS (http://vectornator.io/) --><!DOCTYPE svg PUBLIC "-//W3C//DTD SVG 1.1//EN" "http://www.w3.org/Graphics/SVG/1.1/DTD/svg11.dtd">
<svg height="100%" style="fill-rule:nonzero;clip-rule:evenodd;stroke-linecap:round;stroke-linejoin:round;" xmlns:xlink="http://www.w3.org/1999/xlink" xmlns="http://www.w3.org/2000/svg" xml:space="preserve" width="100%" xmlns:vectornator="http://vectornator.io" version="1.1" viewBox="0 0 3370.82 2384.24">
<metadata>
<vectornator:setting key="DisplayWhiteBackground" value="0"/>
<vectornator:setting key="IsolateActiveLayer" value="0"/>
<vectornator:setting key="OutlineMode" value="0"/>
<vectornator:setting key="PencilOnly" value="0"/>
<vectornator:setting key="SnapToGuides" value="1"/>
<vectornator:setting key="SnapToEdges" value="0"/>
<vectornator:setting key="GuidesVisible" value="1"/>
<vectornator:setting key="doHistoryDisabled" value="0"/>
<vectornator:setting key="SnapToPoints" value="0"/>
<vectornator:setting key="CMYKEnabledKey" value="0"/>
<vectornator:setting key="DimensionsVisible" value="1"/>
<vectornator:setting key="Units" value="Points"/>
<vectornator:setting key="SnapToGrid" value="0"/>
<vectornator:setting key="DynamicGuides" value="0"/>
<vectornator:setting key="RulersVisible" value="1"/>
<vectornator:setting key="TimeLapseWatermarkDisabled" value="0"/>
</metadata>
<defs>
<linearGradient y1="1133.78" id="LinearGradient" x1="499.631" y2="1133.78" x2="2679.7" gradientUnits="userSpaceOnUse" gradientTransform="matrix(-0.00116746 0.999999 -0.999999 -0.00116746 2669.43 -439.894)">
<stop stop-color="#72d099" offset="0.535613"/>
<stop stop-color="#ffffff" offset="0.968531"/>
</linearGradient>
</defs>
<g id="Layer 1" vectornator:layerName="Layer 1">
<path stroke="#f9f7f4" vectornator:shadowColor="#6c665c" vectornator:shadowOffset="43.71" stroke-width="75.0414" fill="url(#LinearGradient)" fill-rule="evenodd" stroke-linecap="round" vectornator:shadowAngle="1.09614" opacity="1" stroke-linejoin="round" vectornator:shadowRadius="45.8161" d="M1152.56+57.9668L1917.58+58.8599C2308.38+59.3162+2624.82+376.494+2624.36+767.297L2623.47+1532.14C2623.01+1922.95+2305.84+2239.39+1915.03+2238.93L1150.02+2238.04C759.215+2237.58+442.777+1920.4+443.233+1529.6L444.126+764.751C444.582+373.949+761.76+57.5106+1152.56+57.9668Z" stroke-opacity="0.755859" vectornator:shadowOpacity="1"/>
<path d="M1110.05+1091.1C1320.51+1170.01+1867.83+1385.29+2097.2+1475.66C2157.91+1499.58+2227.13+1478.91+2264.77+1425.48L2395.34+1240.28L838.436+461.83C844.593+674.064+883.728+1006.25+1110.05+1091.1Z" opacity="1" fill="#000000"/>
<path stroke="#000000" stroke-width="95.4261" d="M1616.89+603.367L1263.05+815.672" fill="none" stroke-linecap="round" opacity="1" stroke-linejoin="round"/>
<path d="M1050.74+1877.2C1173.17+1877.2+1300.98+1814.5+1302.25+1813.86C1322.14+1804.02+1345.49+1804.02+1365.45+1813.86C1366.65+1814.5+1494.46+1877.2+1616.89+1877.2C1739.32+1877.2+1867.13+1814.5+1868.4+1813.86C1888.29+1804.02+1911.64+1804.02+1931.6+1813.86C1932.8+1814.5+2060.61+1877.2+2183.04+1877.2C2264.85+1877.2+2348.07+1849.46+2395.34+1830.7L2395.34+1735.66L838.436+1169.51L838.436+1830.7C885.709+1849.46+968.933+1877.2+1050.74+1877.2Z" opacity="1" fill="#000000"/>
<path stroke="#000000" stroke-width="95.4261" d="M1545.3+1263L1548.16+1263C1598.85+1263+1639.95+1303.92+1639.95+1354.39L1639.95+1354.39C1639.95+1404.87+1598.85+1445.79+1548.16+1445.79L1545.3+1445.79C1494.61+1445.79+1453.51+1404.87+1453.51+1354.39L1453.51+1354.39C1453.51+1303.92+1494.61+1263+1545.3+1263Z" fill="none" stroke-linecap="round" opacity="1" stroke-linejoin="round"/>
</g>
</svg>
