<?xml version="1.0" encoding="UTF-8" standalone="no"?> <!-- Created with Vectornator for iOS (http://vectornator.io/) --><!DOCTYPE svg PUBLIC "-//W3C//DTD SVG 1.1//EN" "http://www.w3.org/Graphics/SVG/1.1/DTD/svg11.dtd">
<svg height="100%" style="fill-rule:nonzero;clip-rule:evenodd;stroke-linecap:round;stroke-linejoin:round;" xmlns:xlink="http://www.w3.org/1999/xlink" xmlns="http://www.w3.org/2000/svg" xml:space="preserve" width="100%" xmlns:vectornator="http://vectornator.io" version="1.1" viewBox="0 0 3370.82 2384.24">
<metadata>
<vectornator:setting key="OutlineMode" value="0"/>
<vectornator:setting key="GuidesVisible" value="1"/>
<vectornator:setting key="DynamicGuides" value="0"/>
<vectornator:setting key="RulersVisible" value="1"/>
<vectornator:setting key="doHistoryDisabled" value="0"/>
<vectornator:setting key="Units" value="Points"/>
<vectornator:setting key="IsolateActiveLayer" value="0"/>
<vectornator:setting key="DimensionsVisible" value="1"/>
<vectornator:setting key="SnapToPoints" value="0"/>
<vectornator:setting key="SnapToGuides" value="1"/>
<vectornator:setting key="SnapToEdges" value="0"/>
<vectornator:setting key="DisplayWhiteBackground" value="0"/>
<vectornator:setting key="SnapToGrid" value="0"/>
<vectornator:setting key="PencilOnly" value="0"/>
<vectornator:setting key="TimeLapseWatermarkDisabled" value="0"/>
<vectornator:setting key="CMYKEnabledKey" value="0"/>
</metadata>
<defs>
<linearGradient y1="1133.78" id="LinearGradient" x1="499.631" y2="1133.78" x2="2679.7" gradientUnits="userSpaceOnUse" gradientTransform="matrix(-0.00116746 0.999999 -0.999999 -0.00116746 2669.43 -439.894)">
<stop stop-color="#69b1f4" offset="0.635149"/>
<stop stop-color="#ffffff" offset="0.968531"/>
</linearGradient>
</defs>
<g id="Layer 1" vectornator:layerName="Layer 1">
<path stroke="#f9f7f4" vectornator:shadowColor="#6c665c" vectornator:shadowOffset="43.71" stroke-width="75.0414" fill="url(#LinearGradient)" fill-rule="evenodd" stroke-linecap="round" vectornator:shadowAngle="1.09614" opacity="1" stroke-linejoin="round" vectornator:shadowRadius="45.8161" d="M1152.56+57.9668L1917.58+58.8599C2308.38+59.3162+2624.82+376.494+2624.36+767.297L2623.47+1532.14C2623.01+1922.95+2305.84+2239.39+1915.03+2238.93L1150.02+2238.04C759.215+2237.58+442.777+1920.4+443.233+1529.6L444.126+764.751C444.582+373.949+761.76+57.5106+1152.56+57.9668Z" stroke-opacity="0.755859" vectornator:shadowOpacity="1"/>
<path d="M2003.54+2049.07C2065.25+2030.9+2089.21+1965.31+2046.32+1910.41C1907.4+1730.71+1631.4+1366.27+1590.35+1306.32C1492.88+1163.94+1621.98+1004.37+1478.33+794.551C1201.28+389.898+768.382+368.794+768.382+368.794L1050.56+780.941C1065.95+803.421+1260.51+1110.8+1316.95+1193.23C1364.96+1255.63+1675.29+1763.04+1815.25+1982.95C1849.32+2040.45+1933.01+2069.84+2003.54+2049.07L2003.54+2049.07Z" opacity="1" fill="#000000"/>
<path d="M2052.73+1013.15C2129.68+903.175+2368.9+530.446+2368.9+530.446C2368.9+530.446+2347.22+499.849+2292.87+454.366L2029.07+831.436C2012.58+855.003+1988+859.344+1967.62+842.287C1947.24+825.231+1944.64+798.149+1961.13+774.583L2230.43+389.657C2216.84+378.286+2203.25+366.915+2189.66+355.545C2169.93+345.259+2155.69+327.118+2142.11+315.747L1878.31+692.817C1861.82+716.384+1837.24+720.725+1816.86+703.669C1796.48+686.613+1793.88+659.531+1810.37+635.964L2074.17+258.894C2014.32+221.266+1981.65+206.381+1981.65+206.381C1981.65+206.381+1759.22+493.524+1638.31+666.348C1506.41+854.883+1656.52+986.731+1601.56+1065.29C1563.09+1120.28+1195.18+1584.58+1028.35+1799.94C983.736+1856.02+986.028+1945.12+1039.73+1983.83L1039.73+1983.83C1094.08+2029.31+1167.17+2009.52+1204.99+1947.76C1351.43+1715.35+1665+1205.56+1703.47+1150.57C1765.22+1077.7+1914.69+1202.77+2052.73+1013.15Z" opacity="1" fill="#000000"/>
</g>
</svg>
