<?xml version="1.0" encoding="UTF-8" standalone="no"?> <!-- Created with Vectornator for iOS (http://vectornator.io/) --><!DOCTYPE svg PUBLIC "-//W3C//DTD SVG 1.1//EN" "http://www.w3.org/Graphics/SVG/1.1/DTD/svg11.dtd">
<svg height="100%" style="fill-rule:nonzero;clip-rule:evenodd;stroke-linecap:round;stroke-linejoin:round;" xmlns:xlink="http://www.w3.org/1999/xlink" xmlns="http://www.w3.org/2000/svg" xml:space="preserve" width="100%" xmlns:vectornator="http://vectornator.io" version="1.1" viewBox="0 0 3370.82 2384.24">
<metadata>
<vectornator:setting key="CMYKEnabledKey" value="0"/>
<vectornator:setting key="DimensionsVisible" value="1"/>
<vectornator:setting key="DynamicGuides" value="0"/>
<vectornator:setting key="doHistoryDisabled" value="0"/>
<vectornator:setting key="SnapToEdges" value="0"/>
<vectornator:setting key="TimeLapseWatermarkDisabled" value="0"/>
<vectornator:setting key="IsolateActiveLayer" value="0"/>
<vectornator:setting key="SnapToGuides" value="1"/>
<vectornator:setting key="DisplayWhiteBackground" value="0"/>
<vectornator:setting key="OutlineMode" value="0"/>
<vectornator:setting key="PencilOnly" value="0"/>
<vectornator:setting key="SnapToPoints" value="0"/>
<vectornator:setting key="SnapToGrid" value="0"/>
<vectornator:setting key="RulersVisible" value="1"/>
<vectornator:setting key="Units" value="Points"/>
<vectornator:setting key="GuidesVisible" value="1"/>
</metadata>
<defs>
<linearGradient y1="1133.78" id="LinearGradient" x1="499.631" y2="1133.78" x2="2679.7" gradientUnits="userSpaceOnUse" gradientTransform="matrix(-0.00116746 0.999999 -0.999999 -0.00116746 2791.27 -396.264)">
<stop stop-color="#f4be69" offset="0.635149"/>
<stop stop-color="#ffffff" offset="0.968531"/>
</linearGradient>
</defs>
<g id="Layer 1" vectornator:layerName="Layer 1">
<path stroke="#f9f7f4" vectornator:shadowColor="#6c665c" vectornator:shadowOffset="43.71" stroke-width="75.0414" fill="url(#LinearGradient)" fill-rule="evenodd" stroke-linecap="round" vectornator:shadowAngle="1.09614" opacity="1" stroke-linejoin="round" vectornator:shadowRadius="45.8161" d="M1274.4+101.597L2039.42+102.49C2430.22+102.946+2746.66+420.124+2746.2+810.927L2745.31+1575.77C2744.85+1966.58+2427.68+2283.02+2036.87+2282.56L1271.86+2281.67C881.056+2281.21+564.618+1964.03+565.074+1573.23L565.967+808.381C566.423+417.579+883.601+101.141+1274.4+101.597Z" stroke-opacity="0.755859" vectornator:shadowOpacity="1"/>
<path d="M1978.24+1342.01L1978.24+665.792C1963.42+663.923+1948.55+662.41+1933.57+662.079C1932.42+662.055+1931.56+661.677+1930.59+661.416L1930.59+1342.01C1930.59+1342.01+1978.24+1342.01+1978.24+1342.01ZM2097.36+1342.01L2097.36+674.968C2095.71+676.008+2093.81+676.789+2091.4+676.86C2077.42+677.286+2063.53+676.505+2049.71+675.181L2049.71+1342.01C2049.71+1342.01+2097.36+1342.01+2097.36+1342.01ZM1396.52+2101.76L1392.57+2101.76C1295.12+2101.76+1215.86+2023.08+1215.86+1926.35L1215.86+1062.49C1080.01+996.228+989.53+859.933+983.908+711.01C977.451+541.772+1074.13+388.568+1230.13+320.764C1237.56+317.548+1246+318.257+1252.72+322.632C1259.46+327.008+1263.51+334.434+1263.51+342.427L1263.51+661.913C1263.51+686.414+1273.11+709.473+1290.57+726.808C1308.04+744.167+1331.24+753.746+1355.85+753.769L1433.26+753.746C1457.92+753.746+1481.12+744.191+1498.58+726.808C1516+709.497+1525.6+686.414+1525.58+661.913L1525.58+342.427C1525.58+334.434+1529.63+327.007+1536.37+322.632C1543.06+318.233+1551.57+317.548+1558.95+320.764C1708.76+385.848+1805.53+532.856+1805.49+695.259C1805.51+852.129+1714.86+994.714+1573.22+1062.8L1573.22+1926.38C1573.22+2023.08+1493.96+2101.76+1396.52+2101.76ZM1215.86+380.622C1097.67+446.747+1026.29+572.02+1031.51+709.236C1036.68+845.365+1122.18+969.645+1249.41+1025.88C1257.98+1029.67+1263.53+1038.16+1263.53+1047.48L1263.53+1926.38C1263.53+1997.02+1321.43+2054.49+1392.59+2054.49L1396.54+2054.49C1467.71+2054.49+1525.6+1997.02+1525.6+1926.38L1525.6+1047.67C1525.6+1038.28+1531.2+1029.76+1539.87+1026C1672.33+968.368+1757.89+838.53+1757.86+695.259L1757.86+695.259C1757.91+564.097+1686.53+444.311+1573.25+380.645L1573.25+661.889C1573.27+699.02+1558.76+733.951+1532.32+760.226C1505.85+786.548+1470.66+801.045+1433.28+801.045L1355.85+801.069C1318.5+801.045+1283.35+786.548+1256.91+760.249C1230.46+733.974+1215.88+699.043+1215.88+661.913L1215.88+380.622L1215.86+380.622Z" opacity="1" fill="#000000"/>
<path d="M1394.54+1936.21C1361.69+1936.21+1334.98+1909.7+1334.98+1877.09C1334.98+1844.48+1361.69+1817.97+1394.54+1817.97C1427.4+1817.97+1454.1+1844.48+1454.1+1877.09C1454.1+1909.7+1427.4+1936.21+1394.54+1936.21ZM1394.54+1841.62C1374.84+1841.62+1358.81+1857.53+1358.81+1877.09C1358.81+1896.65+1374.84+1912.56+1394.54+1912.56C1414.25+1912.56+1430.28+1896.65+1430.28+1877.09C1430.28+1857.53+1414.25+1841.62+1394.54+1841.62ZM2014.09+2097.84C2006.42+2097.84+1998.7+2097.32+1990.94+2096.25C1902.19+2084.07+1835.29+2000+1835.29+1900.65L1835.29+1344.97C1835.29+1331.89+1845.94+1321.32+1859.12+1321.32L2168.83+1321.32C2182.01+1321.32+2192.65+1331.89+2192.65+1344.97L2192.65+1905.26C2192.65+1963.81+2168.21+2018.56+2125.57+2055.46C2093.5+2083.2+2054.59+2097.84+2014.09+2097.84ZM1882.94+1368.62L1882.94+1900.65C1882.94+1976.47+1932.16+2040.42+1997.46+2049.4C2032.29+2054.11+2066.67+2043.66+2094.24+2019.79C2126.49+1991.89+2145.01+1950.14+2145.01+1905.26L2145.01+1368.62L1882.94+1368.62ZM2077.04+706.422L1957.91+706.422C1952.6+706.422+1947.46+704.672+1943.26+701.408L1882.22+654.109C1875.17+648.669+1871.79+639.753+1873.48+631.026L1923.56+370.878C1925.7+359.715+1935.54+351.674+1946.96+351.674L2082.56+351.674C2093.97+351.674+2103.84+359.739+2105.96+370.878L2156.04+631.026C2157.63+639.351+2154.61+647.889+2148.13+653.399L2092.55+700.699C2088.23+704.412+2082.71+706.422+2077.04+706.422ZM1966.11+659.122L2068.22+659.122L2106.63+626.438L2062.84+398.974L1966.63+398.974L1922.99+625.729L1966.11+659.122Z" opacity="1" fill="#000000"/>
<path d="M1960.37+1912.56L1948.46+1912.56C1925.47+1912.56+1906.76+1894+1906.76+1871.18L1906.76+1457.31C1906.76+1434.48+1925.47+1415.92+1948.46+1415.92L1960.37+1415.92C1983.36+1415.92+2002.06+1434.48+2002.06+1457.31L2002.06+1871.18C2002.06+1894+1983.36+1912.56+1960.37+1912.56ZM1948.46+1439.57C1938.62+1439.57+1930.59+1447.54+1930.59+1457.31L1930.59+1871.18C1930.59+1880.95+1938.62+1888.92+1948.46+1888.92L1960.37+1888.92C1970.21+1888.92+1978.24+1880.95+1978.24+1871.18L1978.24+1457.31C1978.24+1447.54+1970.21+1439.57+1960.37+1439.57L1948.46+1439.57ZM2079.49+1912.56L2067.58+1912.56C2044.59+1912.56+2025.89+1894+2025.89+1871.18L2025.89+1457.31C2025.89+1434.48+2044.59+1415.92+2067.58+1415.92L2079.49+1415.92C2102.48+1415.92+2121.18+1434.48+2121.18+1457.31L2121.18+1871.18C2121.18+1894+2102.48+1912.56+2079.49+1912.56ZM2067.58+1439.57C2057.74+1439.57+2049.71+1447.54+2049.71+1457.31L2049.71+1871.18C2049.71+1880.95+2057.74+1888.92+2067.58+1888.92L2079.49+1888.92C2089.33+1888.92+2097.36+1880.95+2097.36+1871.18L2097.36+1457.31C2097.36+1447.54+2089.33+1439.57+2079.49+1439.57L2067.58+1439.57ZM1323.07+1534.17C1316.49+1534.17+1311.16+1528.87+1311.16+1522.34L1311.16+1096.64C1311.16+1090.12+1316.49+1084.82+1323.07+1084.82C1329.65+1084.82+1334.98+1090.12+1334.98+1096.64L1334.98+1522.34C1334.98+1528.89+1329.67+1534.17+1323.07+1534.17ZM1323.07+1652.42C1316.49+1652.42+1311.16+1647.99+1311.16+1642.51L1311.16+1563.28C1311.16+1557.82+1316.49+1553.37+1323.07+1553.37C1329.65+1553.37+1334.98+1557.79+1334.98+1563.28L1334.98+1642.51C1334.98+1647.99+1329.67+1652.42+1323.07+1652.42ZM1323.07+1747.02C1316.49+1747.02+1311.16+1741.72+1311.16+1735.19L1311.16+1687.89C1311.16+1681.36+1316.49+1676.07+1323.07+1676.07C1329.65+1676.07+1334.98+1681.36+1334.98+1687.89L1334.98+1735.19C1334.98+1741.74+1329.67+1747.02+1323.07+1747.02Z" opacity="1" fill="#000000"/>
</g>
</svg>
