<?xml version="1.0" encoding="UTF-8"?>
<!DOCTYPE svg  PUBLIC '-//W3C//DTD SVG 1.1//EN'  'http://www.w3.org/Graphics/SVG/1.1/DTD/svg11.dtd'>
<svg clip-rule="evenodd" stroke-linecap="round" stroke-linejoin="round" version="1.1" viewBox="0 0 3370.8 2384.2" xml:space="preserve" xmlns="http://www.w3.org/2000/svg" xmlns:vectornator="http://vectornator.io">
<metadata>
<vectornator:setting key="PencilOnly" value="0"/>
<vectornator:setting key="SnapToGrid" value="0"/>
<vectornator:setting key="SnapToPoints" value="0"/>
<vectornator:setting key="GuidesVisible" value="1"/>
<vectornator:setting key="DisplayWhiteBackground" value="0"/>
<vectornator:setting key="IsolateActiveLayer" value="0"/>
<vectornator:setting key="SnapToGuides" value="1"/>
<vectornator:setting key="RulersVisible" value="1"/>
<vectornator:setting key="Units" value="Points"/>
<vectornator:setting key="OutlineMode" value="0"/>
<vectornator:setting key="CMYKEnabledKey" value="0"/>
<vectornator:setting key="TimeLapseWatermarkDisabled" value="0"/>
<vectornator:setting key="DimensionsVisible" value="1"/>
<vectornator:setting key="DynamicGuides" value="0"/>
<vectornator:setting key="SnapToEdges" value="0"/>
<vectornator:setting key="doHistoryDisabled" value="0"/>
</metadata>

<g vectornator:layerName="Layer 1">
<path d="m689.07 2074.9 1008.4-1839.1 1008.4 1839.1h-2016.9z" fill="none" stroke="#000" stroke-linecap="round" stroke-linejoin="round" stroke-width="187.5" vectornator:shadowAngle="1.09614" vectornator:shadowColor="#6c665c" vectornator:shadowOffset="43.71" vectornator:shadowOpacity="1" vectornator:shadowRadius="45.8161"/>
<path d="m1705.4 321.07c-9.97 18.203-21.07 36.172-28.52 55.636-1.9 4.958 0.65 10.615-0.99 15.36-0.74 2.131-2.12 3.991-2.99 6.075-2.29 5.531-4.77 10.991-6.95 16.569-8.49 21.758-17.42 43.366-25.07 65.432-16.12 46.465-30.23 93.751-40.95 141.75-19.46 87.145-20.99 174.16-20.99 262.95 0 19.916-1.91 39.923 0 59.748 4.98 51.736 20.23 102.47 38.79 151.02 3.25 8.51 7.73 16.51 12.21 24.45 0.46 0.8 0.34-1.92 0-2.79-0.32-0.82-3.13-6.33-4.48-6.48-0.27-0.02 0.15 0.59 0 0.81-6.73 9.17-13.72 18.14-20.54 27.22-9.77 12.99-19.38 26.1-29.24 39.01-25.68 33.59-52.51 66.31-77.37 100.5-34.96 48.1-68.92 96.92-102.04 146.31-24.28 36.22-44.61 74.93-67.54 112.01-7.86 12.71-16.75 24.77-24.4 37.6-7.95 13.33-12.61 27.7-22.39 39.89-6.99 8.71-15.75 16.77-23.29 24.87-0.58 0.63-0.12-2.93-0.81-2.43-5.35 3.89-10.64 7.91-15.36 12.54-20.08 19.7-38.69 40.85-57.62 61.65-21.5 23.63-43.43 47.77-63.13 72.97-30.08 38.46-53.34 83.02-92.79 112.17-5.86 4.33-16.13 5.98-22.68 9.2-18.146 8.92-34.844 18.65-53.745 26.1-1.744 0.69-2.983 2.68-4.85 2.85-0.19 0.01 0.783-7.65-0.807-6.83-9.674 4.96-17.826 11.97-27.455 17.08-22.524 11.95-45.827 24.94-65.029 39.74-4.032 3.1-9.462 4.39-13.587 7.6-1.909 1.49-2.589 3.91-4.489 5.3-9.492 6.94-19.8 12.89-29.134 20.16-2.446 1.91-4.841 5.91-7.001 7.02-4.222 2.16-11.501-1.29-15.818 0.8-2.774 1.34-13.945 3.65-15.172 4.96-1.692 1.8-2.529 3.26-5.792 4.85-1.559 0.76-6.184-1.18-7.324 0-2.602 2.69-5.893 8.67-9.205 11.68-1.402 1.27-3.779 1.25-5.188 2.48-0.128 0.12-0.979 2.27-1.653 1.6-0.882-0.87 1.694-8.74 1.882-9.31" fill="#fce876" fill-rule="evenodd"/>
<path d="m1565.4 574.39c9.41-20.981 26.75-36.08 41.84-53.114 4.03-4.538 9.29-7.516 11.98-12.973 4.89-9.907 5.22-23.481 10.05-33.447 1.42-2.932-0.79-8.056 0-11.249 5.04-20.411 16.91-33.103 25.66-50.346 4.4-8.655 6.64-24.078 8.46-33.674 1.68-8.845 12.74-20.414 18.71-26.526 3.14-3.204 4.21-7.611 7.32-10.758 1.77-1.807 4.76-3.157 6.53-4.958 1.66-1.678 2.88-3.829 3.99-4.946 0.92-0.911 0-4.867 0-4.743 0 9.72-5.09 17.491-5.09 27.47 0 3.129-0.76 8.921 2.31 8.921" fill="#fce876" fill-rule="evenodd"/>
<path d="m1703.6 324.4c-12.62 31.183-21.45 62.623-30.71 94.979-6.48 22.68-12.14 45.469-14.81 68.97-2.24 19.774-1.33 39.822-1.33 59.683 0 5.171-0.17 10.345 0 15.515 0.44 13.659-1.04 27.591 1.81 40.959 3.43 16.153 10.22 31.46 16.79 46.608 10.18 23.433 21.96 46.143 33.4 68.983 7.04 14.043 14.6 27.823 22.05 41.65 0.19 0.355-0.63-3.398-0.84-2.39-2.15 9.988 0 20.435 0 30.653 0 45.543-2.69 91.166 0 136.63 1.68 28.446 3.76 57.057 9.6 84.944 6.06 28.99 15.3 57.34 25.94 84.97 10.57 27.42 24.74 53.33 37.55 79.79 18.43 38.06 37.57 75.78 56.75 113.46 0.23 0.44 1.13-0.34 1.5 0 4.39 4.14 8.7 8.36 12.79 12.79 12.58 13.63 25.39 27.08 37.21 41.39 36.06 43.68 71.98 87.51 106.36 132.52 48.01 62.85 89.82 129.03 140.72 189.48 5.71 6.79 13.77 11.8 18.03 19.58 2.14 3.9-0.33 8.92 0 13.36 0.71 9.31 1.81 18.6 3.1 27.86 3.73 26.83 8.95 55.15 22.58 79.04 17.35 30.43 46 55.92 72.06 78.35 5.86 5.04 12.24 9.43 18.4 14.1 3.05 2.32 6.08 4.67 9.23 6.86 1.87 1.3 3.42 3.53 5.69 3.76 7.78 0.78 15.74 2.05 22.85 5.28 12.68 5.75 24.74 14 36.93 20.82 13.03 7.29 27.57 13.1 41.34 18.56 3.42 1.36 6.36 3.87 9.89 4.86 4.8 1.35 10.85 0.76 15.86 1.92 7.46 1.73 14.74 3.85 21.95 5.93 4.59 1.32 8.7 1.05 13.33 3.59 3.31 1.81 4.6 6 7.23 8.69 0.74 0.74 8.8 0 10.79 0 10.86 0 19.11-3.01 30.12-3.63 13.29-0.76 30.99-2.23 42.72 4.77 4.21 2.5 8.83 7.55 11.07 11.89 0.75 1.47-1.13 5.86 0 6.99 0.4 0.4 4.62-0.05 4.75 0 2.2 0.9 4.78 3.91 7 5.16 4.48 2.53 9.25 3.64 13.82 5.16 2.09 0.7 6.32 7.24 8.62 9.41 1.47 1.38 4.05 1.61 5.48 2.32 1.31 0.64 3.27 3.29 3.93 4.61 1.55 3.11 7.27 6.6 10.15 9.67 0.86 0.91 2.54 6.24 3.18 6.87 1.17 1.12 2.8 2.03 3.96 3.1 0.44 0.39 7.63 1.65 8.5 0.76 0.3-0.3 0-2.57 0-3.04" fill="#fce876" fill-rule="evenodd"/>
<path d="m2640.9 2042.6c-46.1-4.5-88.08-28.93-130.52-45.63-35.17-13.84-71.92-23.74-107.35-36.92-22.31-8.29-43.99-17.88-66.79-24.93-14.03-4.34-28.63-9.28-43.39-10.34-6.82-0.5-12.22 1.25-18.8 1.75-18.8 1.4-37.67 2.96-56.67 1.35-53.55-4.54-106.58-15.32-158.73-28.33-116.37-29.02-230.15-67.85-345.66-99.96-19.05-5.3-38.24-10.2-57.6-14.27-27.75-5.83-55.9-10.95-84.24-11.71-20.53-0.56-42.97 2.12-63.6-1.02-0.76-0.12 3.03 0 2.27 0-6.26 0-12.65-1.26-18.79 0-14.97 3.04-29.38 8.44-44.11 12.5-16.76 4.62-33.6 8.87-50.35 13.52-43.99 12.2-88.71 25.47-134.06 31.89-13.17 1.85-27.64 0-41.05 0-33.93 0-70.22-2.52-103.7 3.19-10.76 1.83-20.77 1.84-31.6 2.75-4.19 0.36-8.06 2.14-12.18 2.74-1.15 0.16-4.64 0-3.48 0 3.52 0 9.12 1.06 12.35 0 3.74-1.24 5.37-3.12 9.77-3.5 19.08-1.66 39.64 1.06 55.73 12.28 17.72 12.35 7.82 32.8 4.37 50.02-1.77 8.78-4.59 16.8-6.79 25.47-1.57 6.2-1.26 12.53-1.95 18.77-0.58 5.4-2.76 10.78-3.9 16.06-0.87 4.04 0.18 8.8-0.84 12.81-1.85 7.26-3.91 15.14-6.24 22.77-3.18 10.4-5.98 18.34-9.56 27.21-1.42 3.5-3.23 7.87-4.85 9.48-0.56 0.57-0.75 2.29-0.75 2.29s-0.45-1.75 0-2.41c0.91-1.38 3.54-2.5 5.12-2.5" fill="#fce876" fill-rule="evenodd"/>
<path d="m1589.7 2034c-25.52 0-50.09 1.14-75.41-3.47-33.68-6.13-65.8-19.62-97.08-33.51-26.17-11.62-50.36-27.26-75.43-41.09-3.53-1.94-16.86 0.86-22.16 0-30.27-4.88-62.21 5.58-92.54 6.78-55.27 2.21-111.13 0-166.46 0-11.14 0-22.43-1.78-33.43 0-13.78 2.25-26.25 10.42-39.303 14.77-10.899 3.63-22.067 6.48-32.804 10.57-4.498 1.71-9.171 3.01-13.502 5.11-1.824 0.88-2.654 3.14-4.367 4.23-3.776 2.38-10.892 3.88-14.81 5.83-7.335 3.65-14.6 7.48-22.185 10.57-10.743 4.39-17.076 7.56-27.96 10.14-9.212 2.2-18.617 3.58-28.023 4.68-9.296 1.08-20.511-1.81-29.483 0.81-11.078 3.24-19.917 8.51-30.792 4.92-3.439-1.14-30.524-1.54-33.61 0-3.184 1.6 1.233 9.66-0.805 11.7-2.761 2.75-4.618-0.61-4.618-2.43" fill="#fce876" fill-rule="evenodd"/>
<path d="m744.91 2043.6c48.945-42.82 105.5-76.88 162.92-107.01 19.677-10.31 41.402-18.91 62.301-26.45 7.142-2.58 14.441-4.67 21.279-8.12 12.856-6.5 25.286-13.96 37.976-20.69 9.61-5.1 22.65-11.11 32.82-14.69 3.33-1.18 7-1.15 10.33-2.31 14.65-5.14 28.89-11.8 43.71-16.79 24.47-8.23 49.09-18.85 74.61-23.42 13.45-2.42 28.21-1.2 41.79-1.2 11.72 0 23.46-0.81 35.16 0 13.45 0.92 30.52 3.62 43.22 8.94 2.72 1.13 4.91 5.18 7.65 6.73 5.29 2.98 9.03 7.48 14.17 10.49 5.11 2.98 10.36 5.71 15.36 8.86 7.28 4.58 13.76 9.37 20.3 14.89 6.2 5.25 9.5 10.69 17.21 15.12 8.02 4.59 19.16 8.01 25.59 14.56 0.57 0.58 1.68 4.43 2.46 5.58 5.98 8.99 12.08 17.91 17.64 27.28 4.97 8.35 14.03 20.91 14.03 30.46" fill="#fce876" fill-rule="evenodd"/>
<path d="m989.66 1897c0-14.96 3.237-30.07 8.619-44.02 12.836-33.27 27.176-65.94 41.536-98.57 42.54-96.62 91.24-189.82 138.33-284.22 69.56-139.41 126.38-284.98 190.85-426.34 10.67-23.37 33.45-38.5 47.92-59.037 2.33-3.307 1.39-6.016 2.67-9.752 2.1-6.15 4.71-12.163 7.94-17.805 6-10.506 14.33-19.505 21.31-29.382 8.51-12.035 16.77-24.294 24.17-37.046 9.84-16.957 18.45-35.463 25.95-53.504 1.6-3.836 3.52-7.61 4.37-11.677 0.63-2.993-1.11-6.322 0-9.174 2.02-5.219 6.18-9.338 9.02-14.156 2.63-4.449 4.68-9.224 7.39-13.628 39.41-64.244 88.32-122.24 115.77-193.03 2.08-5.369 6.43-15.541 7.29-21.291 2.35-15.667-0.34-33.394 5-48.496 1.69-4.771 5.54-9.211 7.35-13.967 9.64-25.38 16.36-48.714 20.43-75.161 0.24-1.585 1.94-2.713 2.49-4.215 3.34-9.099 10.42-25.182 10.42-34.416v3.41 4.857c0 2.232-0.22 4.474 0 6.695 0.75 7.618 6.36 14.2 10.82 20.284 7.59 10.338 17.97 20.964 23.7 32.415 0.64 1.29-0.3 2.917 0 4.329 0.52 2.514 1.52 4.91 2.1 7.412 2.54 10.943 3.53 22.206 6.09 33.144 1.37 5.852 3.76 11.426 5.29 17.239 3.03 11.511 4.58 22.952 8.64 34.201 3.9 10.786 9.44 20.635 14.16 31.056 11.19 24.707 19.38 51.295 29.77 76.432 8.98 21.717 18.05 42.613 23.36 65.659 7.06 30.63 10.91 61.914 17.06 92.74 4.42 22.221 9.67 44.175 14.07 66.364 0.19 0.984 0 2.005 0 3.008v78.659c0 20.129-0.29 40.262 0 60.392 0.2 14.33-0.82 28.82 1.44 42.98 3.09 19.25 8.27 38.19 14.51 56.67 7.53 22.22 19.95 36.65 34.03 54.86 13.47 17.42 28.69 33.92 40.38 52.69 0.92 1.48 1.62 3.15 1.92 4.86 1.04 5.95 0.26 12.12 1.36 18.05 10.44 56.23 24.81 113.23 38.12 168.6 12.61 52.48 29.34 101.94 51.15 151.19 6.15 13.89 13.65 27.17 19.68 41.11 1.92 4.43 3.31 9.07 4.93 13.6 1.2 3.35 0.64 7.25 2.19 10.46 7 14.5 16.78 27.48 24.95 41.35 6.5 11.02 12.75 24.04 21.91 33.32 4.11 4.17 12.17 3.44 17.42 5.67 3.78 1.61 12.16 7.16 15.1 9.69 24.83 21.43 43.5 48.14 61.49 75.15 1.65 2.48 8.09 9.92 8.26 13.55 0.26 5.92-0.93 11.94 0 17.81 3.39 21.41 8.57 42.52 13.79 63.58 2.18 8.77 4.69 17.46 7.43 26.08 0.64 2.01 2.52 7.22 3.42 5.32 2.63-5.63-1.58-5.33-1.58-9.62" fill="#fce876" fill-rule="evenodd"/>
<path d="m1872 1486c27.52 31.02 51.39 64.26 76.39 97.27 18.09 23.86 36.57 47.25 54.32 71.41 10.35 14.1 16.39 20.02 25.01 34.75 11.85 20.24 20.34 42.76 31.06 63.56 18.23 35.39 36.59 70.66 57.83 104.35 6.72 10.67 13.23 21.5 20.18 32.01 4.75 7.2 9.73 14.26 14.94 21.13 2.87 3.8 5.36 8.15 9.28 10.84 2.27 1.55 5.59 0.14 8.16 1.1 5.35 1.99 10.22 5.09 15.33 7.64 21.18 10.58 41.62 22.34 61.98 34.43 16.84 10 35.44 25.81 54.87 30.76 8.05 2.04 15.69-3.7 22.68-5.7 8.18-2.32 22.28-3.18 30.68-3.9 11.53-1 22.93-1.47 34.42-2.4 4.02-0.32 6.9 0.68 10.9-1.02 17.75-7.54 27.51-23.97 36.05-40.09 2.21-4.18 5.45-8.8 6.67-13.45 3.3-12.51 2.33-25.9 3.2-38.64 1.28-18.58 2.24-28.43 4.63-47.95 1.57-12.77 2.2-25.62 2.72-38.46 0.12-2.81 2.56-12.92 1.18-16.93-2.36-6.9-7.7-12.67-11.56-18.67-2.66-4.12-4.91-8.55-8.08-12.29-2.02-2.4-3.96-2.69-6.69-3.37-11.51-2.93-7.38 13.05-16.65 17.63-4.16 2.04-13.96 0-18.84 0-0.93 0 2.04 0.67 2.32 1.56 0.18 0.59 0 1.23 0 1.84" fill="#fce876" fill-rule="evenodd"/>
<path d="m2395 1773.4c-16.19-2.84-32.49-6.43-47.53-13.06-14.08-6.2-27.75-13.28-41.9-19.32-38.08-16.22-76.65-31.25-115.29-46.08-21.25-8.15-43.11-14.68-64.12-23.42-39.62-16.49-78.28-35.31-116.62-54.61-23.56-11.85-46.75-24.75-68.23-40.03-6.79-4.84-13.36-10.08-19.07-16.15-31.1-33.03-37.69-78.71-37.69-122.09 0-6.21-1.14-15.08 0-21.42 2.02-11.13 8.92-25.46 13.32-35.42 5.67-12.86 12.17-26.07 18.76-38.53 3.26-6.18 5.71-3.84 6.82-9.48 0.47-2.41-0.03-7.11 0.83-9.31 0.82-2.11 10.87-21.98 10.87-15.3" fill="#fce876" fill-rule="evenodd"/>
<path d="m2641.4 2044.1c-45.79 0-92.48 1.61-137.66-6.45-8.92-1.59-14.91-7.8-22.55-11.92-12.41-6.68-24-13.85-36.24-21.05-16.15-9.49-36.15-15.64-48.51-30.55-7.11-8.56-15.34-19.43-19.72-29.79-3.2-7.54-1.86-17.03-1.86-25.05 0-16.07-0.38-32.21 1.01-48.14 0.86-9.94-0.67-21.67 1.7-31.23 0.76-3.04 2.4-5.47 2.4-8.17v-3.98-1.6 4.22" fill="#fce876" fill-rule="evenodd"/>
<path d="m1561.7 601.41c8.84-12.241 18.25-25.124 27.66-37.008 14.39-18.186 30.7-33.133 39.57-54.385 4.29-10.293 0.59-23.119 2.85-33.736 2.04-9.607 5.71-13.28 10.17-21.191 8.26-14.685 16.33-30.738 25.61-43.538 5.45-7.506 9.85-15.227 15.81-22.462 1.37-1.665 4.33-5.062 7.27-3.535 5.13 2.669 11.76 13.406 14.79 18.057 4.07 6.268 10.34 9.918 15 15.742 2.04 2.547 4.09 7.134 5.83 10.067 6.57 11.032 8.43 24.45 14.04 35.938 10.29 21.076 15.02 43.324 20.31 66.251 1.96 8.452 4.75 16.225 5.39 24.978 0.46 6.153 1.36 15.972 0 22.297-0.73 3.413-2.25 5.892-2.62 9.489-1.09 10.875 0 23.403 0 34.1v43.45c0 3.029 2.28 7.084 0 9.086-9.12 8.04-18.73 35.406-23.51 46.722-5.1 12.068-14.5 21.622-19.37 33.786-4.31 10.79-7.98 21.834-11.5 32.906-3.95 12.412-4.87 27.147-10.57 38.984-0.35 0.729-8.09 5.246-9.98 7.461-8.51 9.98-16.22 22.967-23.62 33.686-6 8.696-11.78 18.361-17.25 27.419-1.92 3.176-7.75 11.563-7.69 11.501" fill="#fce876" fill-rule="evenodd"/>
<path d="m1700.6 317.6c-16.38 77.52-32.1 154.16-35.06 233.72-0.92 24.818 0 49.67 0 74.505 0 20.92 0 41.87 1.37 62.745 1.86 28.381 5.05 56.557 4.11 85.084-0.01 0.608-1.39-0.433-1.82 0-4.97 5.063-9.73 10.344-14.28 15.789-9.05 10.818-18.05 21.69-26.49 32.98-12.44 16.626-25.14 33.129-36.15 50.732-15.46 24.709-29.11 50.505-43.16 76.039-21.6 39.239-40.74 80.414-56.26 122.49-2.05 5.57-4.82 11.02-5.6 16.91-1.53 11.64-0.81 23.47-1.24 35.22-0.03 0.64 0.39-1.43 0-1.95-0.44-0.58-1.59-1.16-2.07-0.62-5.63 6.25-11.3 12.47-16.54 19.06-10.81 13.57-21.14 27.51-31.56 41.37-24.82 33.03-49.51 66.16-73.91 99.49-7.72 10.53-14.49 21.75-22.59 31.98-1.85 2.32-4.2 4.19-6.31 6.27-10.67 10.57-12.39-2.44-17.79-9.13-2.19-2.69-4.59-5.27-7.37-7.36-9.02-6.8-18.98-11.98-28.85-17.22-2.56-1.36-5.79-6.08-9.53-4.23-1.6 0.79-2.48 3.05-4.02 3.96-5.21 3.06-14.4 5.08-20.18 6.52-6.64 1.65-14.06 2.59-20.87 3.19-6.76 0.59-18.99-2.04-23.65 2.62-1.72 1.72-20.75-1.3-22.44-1.3-4.74 0-15.3 0.16-15.3-1.83" fill="#fce876" fill-rule="evenodd"/>
<path d="m1553.6 1805.3c0-68.34 49.51-110.25 128.8-110.25 79.3 0 128.08 41.91 128.08 110.25 0 67.72-48.84 109.62-128.08 109.62-79.23 0-128.8-41.9-128.8-109.62zm256.07-945.77-21.53 703.59h-212.96l-20.76-703.59h255.25z" fill-rule="evenodd" vectornator:shadowAngle="1.09614" vectornator:shadowColor="#6c665c" vectornator:shadowOffset="43.71" vectornator:shadowOpacity="1" vectornator:shadowRadius="45.8161"/>
</g>
</svg>
